<?xml version="1.0" encoding="UTF-8" standalone="no"?>
<!-- Created with Inkscape (http://www.inkscape.org/) -->

<svg
   xmlns:dc="http://purl.org/dc/elements/1.1/"
   xmlns:cc="http://creativecommons.org/ns#"
   xmlns:rdf="http://www.w3.org/1999/02/22-rdf-syntax-ns#"
   xmlns:svg="http://www.w3.org/2000/svg"
   xmlns="http://www.w3.org/2000/svg"
   xmlns:sodipodi="http://sodipodi.sourceforge.net/DTD/sodipodi-0.dtd"
   xmlns:inkscape="http://www.inkscape.org/namespaces/inkscape"
   id="svg3845"
   version="1.1"
   inkscape:version="0.48.5 r10040"
   width="200"
   height="158.53246"
   xml:space="preserve"
   viewBox="0 0 200 158.53246"
   preserveAspectRatio="xMinYMin slice"
   sodipodi:docname="Infogalactic.svg"><metadata
     id="metadata3851"><rdf:RDF><cc:Work
         rdf:about=""><dc:format>image/svg+xml</dc:format><dc:type
           rdf:resource="http://purl.org/dc/dcmitype/StillImage" /><dc:title></dc:title></cc:Work></rdf:RDF></metadata><defs
     id="defs3849" /><sodipodi:namedview
     pagecolor="#ffffff"
     bordercolor="#666666"
     borderopacity="1"
     objecttolerance="10"
     gridtolerance="10"
     guidetolerance="10"
     inkscape:pageopacity="0"
     inkscape:pageshadow="2"
     inkscape:window-width="1920"
     inkscape:window-height="1138"
     id="namedview3847"
     showgrid="false"
     inkscape:zoom="2"
     inkscape:cx="267.31824"
     inkscape:cy="3.2900044"
     inkscape:window-x="-8"
     inkscape:window-y="-8"
     inkscape:window-maximized="1"
     inkscape:current-layer="g3853"
     fit-margin-top="0"
     fit-margin-left="0"
     fit-margin-right="0"
     fit-margin-bottom="0" /><g
     id="g3853"
     inkscape:groupmode="layer"
     inkscape:label="Infogalactic"
     transform="matrix(1.25,0,0,-1.25,-333.43739,783.76813)"><g
       id="g4111"
       transform="matrix(1.2851404,0,0,1.2851404,-76.061173,-142.62395)"><path
         sodipodi:nodetypes="sscccccccccccsccsccsscscsscccccccssccccsccscsscscssssss"
         inkscape:connector-curvature="0"
         id="path3855"
         transform="matrix(0.8,0,0,-0.8,0,792)"
         d="m 476.3125,247.5625 c -7.81146,0.17215 -16.42859,2.88636 -24,5.6875 -7.14528,2.64348 -13.11441,5.4722 -16.09375,6.9375 -0.17768,0.0874 -0.50152,0.23563 -0.65625,0.3125 -0.37021,0.17949 -0.77582,0.36918 -1.1875,0.59375 -0.0301,0.0156 -0.25,0.125 -0.25,0.125 -1.95195,1.08139 -4.03125,2.4375 -4.03125,2.4375 1.32811,0.52331 7.03125,3.3125 7.03125,3.3125 l 0.0312,0 1.1875,-0.59375 c 2.28308,-1.13813 7.65274,-3.73262 14.15625,-6.25 4.27318,-1.82287 17.7329,-4.01855 22.5625,-1.1875 2.47249,1.4494 2.32742,4.22388 0.33617,6.54956 -2.89938,3.22251 -6.3734,6.83014 -10.39867,10.38794 -6.30317,5.57116 -13.67018,11.20223 -20.75,16 4.4474,-17.07222 -20.03125,-23.84375 -20.03125,-23.84375 -3.93915,-2.37608 -8.58311,-3.78125 -13.53125,-3.78125 -4.41165,0 -8.57458,1.11067 -12.21875,3.03125 l 0,-0.0312 c -12.2048,3.6499 -30.8277,16.59999 -45.28125,29.375 -7.22678,6.38751 -13.25805,12.65468 -16.75,18.03125 -1.74597,2.68829 -2.98725,5.10396 -3,7.90625 -0.006,1.40114 0.43293,2.99706 1.4375,4.1875 1.00457,1.19044 2.40264,1.91432 3.84375,2.28125 2.35119,0.59871 4.86352,0.7745 7.46875,0.71875 7.81569,-0.16721 16.42861,-2.85509 24,-5.65625 7.14525,-2.64351 13.12127,-5.47221 16.09375,-6.9375 0.0272,-0.0114 0.0659,-0.0193 0.0937,-0.0312 0.51032,-0.21943 1.11203,-0.52699 1.75,-0.875 1.45467,-0.76275 2.88143,-1.66958 4.28125,-2.5625 -1.3281,-0.5233 -7,-3.3125 -7,-3.3125 l -0.0625,0.0312 0,-0.0312 c 0,0 -0.46816,0.27995 -1.34375,0.71875 -2.62676,1.3164 -8.79234,4.25934 -16.03125,6.9375 -2.18545,0.80854 -4.47324,1.56862 -6.78125,2.25 -4.33478,1.33471 -11.22741,1.21476 -14.3125,-0.59375 -3.01918,-1.7698 -1.78316,-5.16401 0.5625,-8.40625 2.66734,-3.37278 6.95997,-7.02948 10.06245,-9.7812 6.51919,-5.7621 14.1684,-11.63117 21.46875,-16.53125 -6.83,18.45474 19.46875,25.71875 19.46875,25.71875 3.64994,1.92856 7.82852,3.03125 12.25,3.03125 4.85062,0 9.4239,-1.33469 13.3125,-3.625 12.2048,-3.6499 30.85894,-16.59999 45.3125,-29.375 7.22679,-6.38751 13.25804,-12.65468 16.75,-18.03125 1.74599,-2.68829 2.98713,-5.10398 3,-7.90625 0.006,-1.40114 -0.43294,-2.99705 -1.4375,-4.1875 -1.00456,-1.19045 -2.40265,-1.91432 -3.84375,-2.28125 -2.35119,-0.59871 -4.86493,-0.80738 -7.46875,-0.75 z m -65.625,23.1875 c 10.6726,0 19.15625,8.21536 19.15625,18.25 0,10.03464 -8.48365,18.21875 -19.15625,18.21875 -10.67204,0 -19.125,-8.18411 -19.125,-18.21875 0,-10.03464 8.45296,-18.25 19.125,-18.25 z"
         style="font-size:medium;font-style:normal;font-variant:normal;font-weight:normal;font-stretch:normal;text-indent:0;text-align:start;text-decoration:none;line-height:normal;letter-spacing:normal;word-spacing:normal;text-transform:none;direction:ltr;block-progression:tb;writing-mode:lr-tb;text-anchor:start;baseline-shift:baseline;color:#000000;fill:#000000;fill-opacity:1;stroke:none;stroke-width:5.18602562;marker:none;visibility:visible;display:inline;overflow:visible;enable-background:accumulate;font-family:Sans;-inkscape-font-specification:Sans" /><path
         id="path3861"
         style="fill:#ffffff;fill-opacity:1;fill-rule:evenodd;stroke:none"
         d="m 318.82868,582.43785 20.48078,0 0,-43.18974 -20.48078,0 0,43.18974 z"
         inkscape:connector-curvature="0" /><path
         sodipodi:nodetypes="ccccccccccccccc"
         inkscape:connector-curvature="0"
         id="path3892"
         transform="matrix(0.8,0,0,-0.8,0,792)"
         d="m 392.5,241.40625 0,9.71875 c 0,0 6.76472,0.54867 10.34375,3.09375 l 0,69.6875 C 399.26688,326.45133 392.53125,327 392.53125,327 c -0.006,3.3e-4 -0.0253,-3.3e-4 -0.0312,0 l 0,9.71875 37.625,0 0,-9.71875 -0.53125,-0.0625 c -1.78008,-0.19669 -7.47731,-1.00211 -10.3125,-3.4375 l 0,-69.4375 c 2.59458,-1.87646 10.34864,-2.9065 10.84375,-2.9375 l 0,-9.71875 z"
         style="font-size:80.89800262px;font-variant:normal;font-weight:normal;writing-mode:lr-tb;fill:#000000;fill-opacity:1;fill-rule:nonzero;stroke:none;font-family:Verdana;-inkscape-font-specification:Verdana" /><g
         id="text3894"
         style="font-size:39.86156082px;font-style:normal;font-variant:normal;font-weight:normal;font-stretch:normal;line-height:1000%;letter-spacing:0px;word-spacing:0px;fill:#000000;fill-opacity:1;stroke:none;font-family:Orbitron;-inkscape-font-specification:Orbitron"
         transform="scale(1,-1)"><path
           id="path3975"
           style="font-size:12.25742912px;font-weight:bold;font-family:Bank Gothic AS;-inkscape-font-specification:Bank Gothic AS Bold"
           d="m 279.74043,-510.41476 1.33604,0 0,-7.62403 -1.33604,0 z"
           inkscape:connector-curvature="0" /><path
           id="path3977"
           style="font-size:12.25742912px;font-weight:bold;font-family:Bank Gothic AS;-inkscape-font-specification:Bank Gothic AS Bold"
           d="m 290.24764,-512.48624 -5.54028,-5.55255 -0.99284,0 0,7.62403 1.1767,0 0,-5.54029 5.55254,5.54029 0.99284,0 0,-7.62403 -1.18896,0 z"
           inkscape:connector-curvature="0" /><path
           id="path3979"
           style="font-size:12.25742912px;font-weight:bold;font-family:Bank Gothic AS;-inkscape-font-specification:Bank Gothic AS Bold"
           d="m 300.77256,-518.03879 -6.66796,0 0,7.62403 1.33605,0 0,-3.29721 3.16237,0 0,-1.1767 -3.16237,0 0,-1.97342 5.33191,0 z"
           inkscape:connector-curvature="0" /><path
           id="path3981"
           style="font-size:12.25742912px;font-weight:bold;font-family:Bank Gothic AS;-inkscape-font-specification:Bank Gothic AS Bold"
           d="m 310.22685,-511.72629 0,-5.00097 c -0.002,-0.42466 -0.11466,-0.74896 -0.3386,-0.97292 -0.22396,-0.22394 -0.54827,-0.33681 -0.97292,-0.33861 l -5.09903,0 c -0.42466,0.002 -0.74897,0.11467 -0.97292,0.33861 -0.22395,0.22396 -0.33682,0.54826 -0.33861,0.97292 l 0,5.00097 c 0.002,0.4193 0.11466,0.74207 0.33861,0.96832 0.22395,0.22625 0.54826,0.34065 0.97292,0.34321 l 5.09903,0 c 0.42465,-0.003 0.74896,-0.11696 0.97292,-0.34321 0.22394,-0.22625 0.33681,-0.54902 0.3386,-0.96832 z m -1.33604,-5.1358 0,5.25837 -5.04999,0 0,-5.25837 z"
           inkscape:connector-curvature="0" /><path
           id="path3983"
           style="font-size:12.25742912px;font-weight:bold;font-family:Bank Gothic AS;-inkscape-font-specification:Bank Gothic AS Bold"
           d="m 320.3536,-516.72726 c -0.002,-0.42466 -0.11467,-0.74896 -0.33861,-0.97292 -0.22396,-0.22394 -0.54826,-0.33681 -0.97292,-0.33861 l -5.09902,0 c -0.42467,0.002 -0.74898,0.11467 -0.97293,0.33861 -0.22395,0.22396 -0.33682,0.54826 -0.3386,0.97292 l 0,5.00097 c 0.002,0.42466 0.11465,0.74897 0.3386,0.97292 0.22395,0.22395 0.54826,0.33682 0.97293,0.33861 l 5.09902,0 c 0.42466,-0.002 0.74896,-0.11466 0.97292,-0.33861 0.22394,-0.22395 0.33681,-0.54826 0.33861,-0.97292 l 0,-3.11335 -3.89781,0 0,1.18896 2.56177,0 0,2.05922 -5.05,0 0,-5.25837 5.05,0 0,1.0909 1.33604,-0.23289 z"
           inkscape:connector-curvature="0" /><path
           id="path3985"
           style="font-size:12.25742912px;font-weight:bold;font-family:Bank Gothic AS;-inkscape-font-specification:Bank Gothic AS Bold"
           d="m 330.73774,-510.41476 -3.97135,-7.62403 -1.02961,0 -3.97136,7.62403 1.33604,0 0.84576,-1.63022 4.43713,0 0.84575,1.63022 z m -4.57196,-5.89575 1.6057,3.08883 -3.2114,0 z"
           inkscape:connector-curvature="0" /><path
           id="path3987"
           style="font-size:12.25742912px;font-weight:bold;font-family:Bank Gothic AS;-inkscape-font-specification:Bank Gothic AS Bold"
           d="m 333.62541,-518.03879 -1.33604,0 0,7.62403 6.15315,0 0,-1.18896 -4.81711,0 z"
           inkscape:connector-curvature="0" /><path
           id="path3989"
           style="font-size:12.25742912px;font-weight:bold;font-family:Bank Gothic AS;-inkscape-font-specification:Bank Gothic AS Bold"
           d="m 347.92687,-510.41476 -3.97135,-7.62403 -1.02961,0 -3.97136,7.62403 1.33604,0 0.84575,-1.63022 4.43714,0 0.84575,1.63022 z m -4.57196,-5.89575 1.6057,3.08883 -3.2114,0 z"
           inkscape:connector-curvature="0" /><path
           id="path3991"
           style="font-size:12.25742912px;font-weight:bold;font-family:Bank Gothic AS;-inkscape-font-specification:Bank Gothic AS Bold"
           d="m 356.51417,-516.72726 c -0.002,-0.42466 -0.11466,-0.74896 -0.33861,-0.97292 -0.22395,-0.22394 -0.54826,-0.33681 -0.97292,-0.33861 l -4.53519,0 c -0.42466,0.002 -0.74897,0.11467 -0.97292,0.33861 -0.22395,0.22396 -0.33682,0.54826 -0.33861,0.97292 l 0,5.00097 c 0.002,0.42466 0.11466,0.74897 0.33861,0.97292 0.22395,0.22395 0.54826,0.33682 0.97292,0.33861 l 4.53519,0 c 0.42466,-0.002 0.74897,-0.11466 0.97292,-0.33861 0.22395,-0.22395 0.33681,-0.54826 0.33861,-0.97292 l 0,-1.16444 -1.33604,-0.23289 0,1.5199 -4.48616,0 0,-5.25837 4.48616,0 0,1.53216 1.33604,-0.23289 z"
           inkscape:connector-curvature="0" /><path
           id="path3993"
           style="font-size:12.25742912px;font-weight:bold;font-family:Bank Gothic AS;-inkscape-font-specification:Bank Gothic AS Bold"
           d="m 357.6998,-518.03879 0,1.1767 2.91723,0 0,6.44733 1.32379,0 0,-6.44733 2.91723,0 0,-1.1767 z"
           inkscape:connector-curvature="0" /><path
           id="path3995"
           style="font-size:12.25742912px;font-weight:bold;font-family:Bank Gothic AS;-inkscape-font-specification:Bank Gothic AS Bold"
           d="m 366.40429,-510.41476 1.33604,0 0,-7.62403 -1.33604,0 z"
           inkscape:connector-curvature="0" /><path
           id="path3997"
           style="font-size:12.25742912px;font-weight:bold;font-family:Bank Gothic AS;-inkscape-font-specification:Bank Gothic AS Bold"
           d="m 377.41404,-516.72726 c -0.002,-0.42466 -0.11466,-0.74896 -0.3386,-0.97292 -0.22396,-0.22394 -0.54827,-0.33681 -0.97293,-0.33861 l -4.53519,0 c -0.42466,0.002 -0.74897,0.11467 -0.97292,0.33861 -0.22395,0.22396 -0.33682,0.54826 -0.3386,0.97292 l 0,5.00097 c 0.002,0.42466 0.11465,0.74897 0.3386,0.97292 0.22395,0.22395 0.54826,0.33682 0.97292,0.33861 l 4.53519,0 c 0.42466,-0.002 0.74897,-0.11466 0.97293,-0.33861 0.22394,-0.22395 0.33681,-0.54826 0.3386,-0.97292 l 0,-1.16444 -1.33604,-0.23289 0,1.5199 -4.48616,0 0,-5.25837 4.48616,0 0,1.53216 1.33604,-0.23289 z"
           inkscape:connector-curvature="0" /></g><g
         id="text3898"
         style="font-size:39.86156082px;font-style:normal;font-variant:normal;font-weight:normal;font-stretch:normal;line-height:1000%;letter-spacing:0px;word-spacing:0px;fill:#000000;fill-opacity:1;stroke:none;font-family:Orbitron;-inkscape-font-specification:Orbitron"
         transform="scale(1,-1)"><path
           id="path4000"
           style="font-size:6.74263906px"
           d="m 282.67423,-505.65 -3.10158,0 0,5.46147 0.7282,0 0,-1.55079 2.37338,0 c 0.24891,-0.006 0.45568,-0.0916 0.62031,-0.25622 0.16463,-0.16463 0.25004,-0.3714 0.25622,-0.62031 l 0,-2.15762 c -0.006,-0.24891 -0.0916,-0.45568 -0.25622,-0.62031 -0.16463,-0.16463 -0.3714,-0.25003 -0.62031,-0.25622 z m 0.14834,3.03415 c -10e-4,0.0416 -0.0157,0.0764 -0.0438,0.10451 -0.0281,0.0281 -0.0629,0.0427 -0.10451,0.0438 l -2.22504,0 c -0.0416,-0.001 -0.0764,-0.0157 -0.10451,-0.0438 -0.0281,-0.0281 -0.0427,-0.0629 -0.0438,-0.10451 l 0,-2.15762 c 0.001,-0.0416 0.0157,-0.0764 0.0438,-0.10451 0.0281,-0.0281 0.0629,-0.0427 0.10451,-0.0438 l 2.22504,0 c 0.0416,0.001 0.0764,0.0157 0.10451,0.0438 0.0281,0.0281 0.0427,0.0629 0.0438,0.10451 z"
           inkscape:connector-curvature="0" /><path
           id="path4002"
           style="font-size:6.74263906px"
           d="m 284.0367,-504.77347 c 0,10e-6 0,10e-6 0,0 l 0,2.15762 c 0.006,0.24891 0.0916,0.45568 0.25622,0.62031 0.16463,0.16463 0.3714,0.25004 0.62032,0.25622 l 0.72819,0 0,-0.72819 -0.72819,0 c -0.0416,-10e-4 -0.0764,-0.0157 -0.10451,-0.0438 -0.0281,-0.0281 -0.0427,-0.0629 -0.0438,-0.10451 l 0,-4.31523 -0.7282,0 0,2.15761 z"
           inkscape:connector-curvature="0" /><path
           id="path4004"
           style="font-size:6.74263906px"
           d="m 289.17951,-505.65 -3.10158,0 0,0.7282 3.10158,0 c 0.0416,0.001 0.0764,0.0157 0.10451,0.0438 0.0281,0.0281 0.0427,0.0629 0.0438,0.10451 l 0,0.71471 -3.24991,0 0,1.44291 c 0.006,0.24891 0.0916,0.45568 0.25622,0.62031 0.16463,0.16463 0.3714,0.25004 0.62031,0.25622 l 3.10158,0 0,-3.03415 c -0.006,-0.24891 -0.0916,-0.45568 -0.25622,-0.62031 -0.16463,-0.16463 -0.3714,-0.25003 -0.62031,-0.25622 z m 0.14833,3.18249 -2.37338,0 c -0.0416,-10e-4 -0.0764,-0.0157 -0.10451,-0.0438 -0.0281,-0.0281 -0.0427,-0.0629 -0.0438,-0.10451 l 0,-0.71471 2.52171,0 z"
           inkscape:connector-curvature="0" /><path
           id="path4006"
           style="font-size:6.74263906px"
           d="m 293.86806,-505.65 -3.10157,0 0,3.91068 0.72819,0 0,-3.03415 c 10e-4,-0.0416 0.0157,-0.0764 0.0438,-0.10451 0.0281,-0.0281 0.0629,-0.0427 0.10451,-0.0438 l 2.22504,0 c 0.0416,0.001 0.0764,0.0157 0.10451,0.0438 0.0281,0.0281 0.0427,0.0629 0.0438,0.10451 l 0,3.03415 0.7282,0 0,-3.03415 c -0.006,-0.24891 -0.0916,-0.45568 -0.25622,-0.62031 -0.16464,-0.16463 -0.37141,-0.25003 -0.62032,-0.25622 z"
           inkscape:connector-curvature="0" /><path
           id="path4008"
           style="font-size:6.74263906px"
           d="m 298.53608,-505.65 -2.22505,0 c -0.24891,0.006 -0.45568,0.0916 -0.62031,0.25622 -0.16463,0.16463 -0.25004,0.3714 -0.25622,0.62031 l 0,2.15762 c 0.006,0.24891 0.0916,0.45568 0.25622,0.62031 0.16463,0.16463 0.3714,0.25004 0.62031,0.25622 l 3.10158,0 0,-0.72819 -3.10158,0 c -0.0416,-10e-4 -0.0764,-0.0157 -0.10451,-0.0438 -0.0281,-0.0281 -0.0427,-0.0629 -0.0438,-0.10451 l 0,-0.71471 3.24991,0 0,-1.44291 c -0.006,-0.24891 -0.0916,-0.45568 -0.25622,-0.62031 -0.16463,-0.16463 -0.3714,-0.25003 -0.62031,-0.25622 z m -2.37338,1.59124 0,-0.71471 c 0.001,-0.0416 0.0157,-0.0764 0.0438,-0.10451 0.0281,-0.0281 0.0629,-0.0427 0.10451,-0.0438 l 2.22505,0 c 0.0416,0.001 0.0764,0.0157 0.10451,0.0438 0.0281,0.0281 0.0427,0.0629 0.0438,0.10451 l 0,0.71471 z"
           inkscape:connector-curvature="0" /><path
           id="path4010"
           style="font-size:6.74263906px"
           d="m 302.44281,-504.9218 0,-0.7282 -1.60472,0 0,-1.28108 -0.7282,0 0,2.15761 c 0,10e-6 0,10e-6 0,0 l 0,2.15762 c 0.006,0.24891 0.0916,0.45568 0.25622,0.62031 0.16463,0.16463 0.3714,0.25004 0.62031,0.25622 l 1.45639,0 0,-0.72819 -1.45639,0 c -0.0416,-10e-4 -0.0764,-0.0157 -0.10451,-0.0438 -0.0281,-0.0281 -0.0427,-0.0629 -0.0438,-0.10451 l 0,-2.30595 z"
           inkscape:connector-curvature="0" /><path
           id="path4012"
           style="font-size:6.74263906px"
           d="m 305.97026,-505.65 -3.10158,0 0,0.7282 3.10158,0 c 0.0416,0.001 0.0764,0.0157 0.10451,0.0438 0.0281,0.0281 0.0427,0.0629 0.0438,0.10451 l 0,0.71471 -3.24991,0 0,1.44291 c 0.006,0.24891 0.0916,0.45568 0.25622,0.62031 0.16463,0.16463 0.3714,0.25004 0.62031,0.25622 l 3.10158,0 0,-3.03415 c -0.006,-0.24891 -0.0916,-0.45568 -0.25622,-0.62031 -0.16463,-0.16463 -0.3714,-0.25003 -0.62031,-0.25622 z m 0.14833,3.18249 -2.37338,0 c -0.0416,-10e-4 -0.0764,-0.0157 -0.1045,-0.0438 -0.0281,-0.0281 -0.0427,-0.0629 -0.0438,-0.10451 l 0,-0.71471 2.52171,0 z"
           inkscape:connector-curvature="0" /><path
           id="path4014"
           style="font-size:6.74263906px"
           d="m 308.42029,-505.65 c -0.24892,0.006 -0.45569,0.0916 -0.62032,0.25622 -0.16463,0.16463 -0.25003,0.3714 -0.25621,0.62031 l 0,2.15762 c 0,0 0,0 0,0 l 0,0.87653 0.72819,0 0,-3.03415 c 10e-4,-0.0416 0.0157,-0.0764 0.0438,-0.10451 0.0281,-0.0281 0.0629,-0.0427 0.10451,-0.0438 l 2.18459,0 0,-0.7282 z"
           inkscape:connector-curvature="0" /><path
           id="path4016"
           style="font-size:6.74263906px"
           d="m 314.90477,-503.23617 0,-2.40034 -0.72819,0 0,3.02066 c -10e-4,0.0416 -0.0157,0.0764 -0.0438,0.10451 -0.0281,0.0281 -0.0629,0.0427 -0.10451,0.0438 l -2.22504,0 c -0.0416,-0.001 -0.0764,-0.0157 -0.10451,-0.0438 -0.0281,-0.0281 -0.0427,-0.0629 -0.0438,-0.10451 l 0,-3.02066 -0.72819,0 0,3.02066 c 0.006,0.24891 0.0916,0.45568 0.25621,0.62031 0.16463,0.16463 0.3714,0.25004 0.62032,0.25622 l 2.37338,0 0,0.67426 c -0.001,0.0416 -0.0157,0.0764 -0.0438,0.10451 -0.0281,0.0281 -0.0629,0.0427 -0.10451,0.0438 l -2.41383,0 0,0.7282 2.41383,0 c 0.24891,-0.006 0.45568,-0.0916 0.62031,-0.25622 0.16463,-0.16463 0.25004,-0.3714 0.25622,-0.62031 l 0,-2.15762 c 0,-0.001 0,-0.006 0,-0.0135 z"
           inkscape:connector-curvature="0" /><path
           id="path4018"
           style="font-size:6.74263906px"
           d="m 320.64688,-505.65 -1.46314,1.59124 -0.87653,0 0,-2.87232 -0.7282,0 0,5.19176 0.7282,0 0,-1.59124 0.87653,0 1.46314,1.59124 0.86304,0 0,-0.10114 -1.67889,-1.8542 1.67889,-1.8542 0,-0.10114 z"
           inkscape:connector-curvature="0" /><path
           id="path4020"
           style="font-size:6.74263906px"
           d="m 325.0396,-505.65 -3.10157,0 0,3.91068 0.72819,0 0,-3.03415 c 10e-4,-0.0416 0.0157,-0.0764 0.0438,-0.10451 0.0281,-0.0281 0.0629,-0.0427 0.10451,-0.0438 l 2.22504,0 c 0.0416,0.001 0.0764,0.0157 0.10451,0.0438 0.0281,0.0281 0.0427,0.0629 0.0438,0.10451 l 0,3.03415 0.72819,0 0,-3.03415 c -0.006,-0.24891 -0.0916,-0.45568 -0.25621,-0.62031 -0.16464,-0.16463 -0.37141,-0.25003 -0.62032,-0.25622 z"
           inkscape:connector-curvature="0" /><path
           id="path4022"
           style="font-size:6.74263906px"
           d="m 327.48257,-505.65 c -0.24891,0.006 -0.45568,0.0916 -0.62031,0.25622 -0.16464,0.16463 -0.25004,0.3714 -0.25622,0.62031 l 0,2.15762 c 0.006,0.24891 0.0916,0.45568 0.25622,0.62031 0.16463,0.16463 0.3714,0.25004 0.62031,0.25622 l 2.22504,0 c 0.24891,-0.006 0.45568,-0.0916 0.62032,-0.25622 0.16462,-0.16463 0.25003,-0.3714 0.25621,-0.62031 l 0,-2.15762 c -0.006,-0.24891 -0.0916,-0.45568 -0.25621,-0.62031 -0.16464,-0.16463 -0.37141,-0.25003 -0.62032,-0.25622 z m 2.22504,0.7282 c 0.0416,0.001 0.0764,0.0157 0.10451,0.0438 0.0281,0.0281 0.0427,0.0629 0.0438,0.10451 l 0,2.15762 c -0.001,0.0416 -0.0157,0.0764 -0.0438,0.10451 -0.0281,0.0281 -0.0629,0.0427 -0.10451,0.0438 l -2.22504,0 c -0.0416,-0.001 -0.0764,-0.0157 -0.10451,-0.0438 -0.0281,-0.0281 -0.0427,-0.0629 -0.0438,-0.10451 l 0,-2.15762 c 0.001,-0.0416 0.0157,-0.0764 0.0438,-0.10451 0.0281,-0.0281 0.0629,-0.0427 0.10451,-0.0438 z"
           inkscape:connector-curvature="0" /><path
           id="path4024"
           style="font-size:6.74263906px"
           d="m 337.13396,-505.65 -0.99115,2.59588 -1.19343,-2.59588 -0.82934,0 -1.126,2.59588 -1.05858,-2.59588 -0.7754,0 1.5373,3.91068 0.58661,0 -0.007,-0.007 0.0135,0.007 1.24063,-2.90604 1.3148,2.90604 0.59334,0 1.46988,-3.91068 z"
           inkscape:connector-curvature="0" /><path
           id="path4026"
           style="font-size:6.74263906px"
           d="m 338.42557,-504.77347 c 0,10e-6 0,10e-6 0,0 l 0,2.15762 c 0.006,0.24891 0.0916,0.45568 0.25621,0.62031 0.16463,0.16463 0.37141,0.25004 0.62032,0.25622 l 0.7282,0 0,-0.72819 -0.7282,0 c -0.0416,-10e-4 -0.0764,-0.0157 -0.10451,-0.0438 -0.0281,-0.0281 -0.0427,-0.0629 -0.0438,-0.10451 l 0,-4.31523 -0.72819,0 0,2.15761 z"
           inkscape:connector-curvature="0" /><path
           id="path4028"
           style="font-size:6.74263906px"
           d="m 343.56163,-505.65 -2.22504,0 c -0.24892,0.006 -0.45569,0.0916 -0.62032,0.25622 -0.16463,0.16463 -0.25004,0.3714 -0.25622,0.62031 l 0,2.15762 c 0.006,0.24891 0.0916,0.45568 0.25622,0.62031 0.16463,0.16463 0.3714,0.25004 0.62032,0.25622 l 3.10157,0 0,-0.72819 -3.10157,0 c -0.0416,-10e-4 -0.0764,-0.0157 -0.10451,-0.0438 -0.0281,-0.0281 -0.0427,-0.0629 -0.0438,-0.10451 l 0,-0.71471 3.24991,0 0,-1.44291 c -0.006,-0.24891 -0.0916,-0.45568 -0.25622,-0.62031 -0.16463,-0.16463 -0.3714,-0.25003 -0.62031,-0.25622 z m -2.37338,1.59124 0,-0.71471 c 0.001,-0.0416 0.0157,-0.0764 0.0438,-0.10451 0.0281,-0.0281 0.0629,-0.0427 0.10451,-0.0438 l 2.22504,0 c 0.0416,0.001 0.0764,0.0157 0.10451,0.0438 0.0281,0.0281 0.0427,0.0629 0.0438,0.10451 l 0,0.71471 z"
           inkscape:connector-curvature="0" /><path
           id="path4030"
           style="font-size:6.74263906px"
           d="m 348.18308,-506.93108 0,1.28108 -2.37338,0 c -0.24891,0.006 -0.45568,0.0916 -0.62031,0.25622 -0.16463,0.16463 -0.25004,0.3714 -0.25622,0.62031 l 0,2.15762 c 0.006,0.24891 0.0916,0.45568 0.25622,0.62031 0.16463,0.16463 0.3714,0.25004 0.62031,0.25622 l 3.10158,0 0,-5.19176 z m -2.37338,4.46357 c -0.0416,-10e-4 -0.0764,-0.0157 -0.10451,-0.0438 -0.0281,-0.0281 -0.0427,-0.0629 -0.0438,-0.10451 l 0,-2.15762 c 0.001,-0.0416 0.0157,-0.0764 0.0438,-0.10451 0.0281,-0.0281 0.0629,-0.0427 0.10451,-0.0438 l 2.22504,0 c 0.0416,10e-4 0.0764,0.0157 0.10451,0.0438 0.0281,0.0281 0.0427,0.0629 0.0438,0.10451 l 0,2.15762 c -10e-4,0.0416 -0.0157,0.0764 -0.0438,0.10451 -0.0281,0.0281 -0.0629,0.0427 -0.10451,0.0438 z"
           inkscape:connector-curvature="0" /><path
           id="path4032"
           style="font-size:6.74263906px"
           d="m 353.53651,-503.22942 0,-1.54405 c -0.006,-0.24891 -0.0916,-0.45568 -0.25622,-0.62031 -0.16463,-0.16463 -0.3714,-0.25003 -0.62031,-0.25622 l -2.22504,0 c -0.24892,0.006 -0.45569,0.0916 -0.62032,0.25622 -0.16463,0.16463 -0.25004,0.3714 -0.25622,0.62031 l 0,2.15762 c 0.006,0.24891 0.0916,0.45568 0.25622,0.62031 0.16463,0.16463 0.3714,0.25004 0.62032,0.25622 l 2.37337,0 0,0.67426 c -0.001,0.0416 -0.0157,0.0764 -0.0438,0.10451 -0.0281,0.0281 -0.0629,0.0427 -0.10451,0.0438 l -2.41384,0 0,0.7282 2.41384,0 c 0.24891,-0.006 0.45568,-0.0916 0.62031,-0.25622 0.16463,-0.16463 0.25004,-0.3714 0.25622,-0.62031 l 0,-2.15762 c 0,-2.8e-4 0,-0.001 0,-0.003 0,-0.002 0,-0.003 0,-0.003 z m -3.10157,0.76191 c -0.0416,-10e-4 -0.0764,-0.0157 -0.10451,-0.0438 -0.0281,-0.0281 -0.0427,-0.0629 -0.0438,-0.10451 l 0,-2.15762 c 10e-4,-0.0416 0.0157,-0.0764 0.0438,-0.10451 0.0281,-0.0281 0.0629,-0.0427 0.10451,-0.0438 l 2.22504,0 c 0.0416,10e-4 0.0764,0.0157 0.10451,0.0438 0.0281,0.0281 0.0427,0.0629 0.0438,0.10451 l 0,2.15762 c -10e-4,0.0416 -0.0157,0.0764 -0.0438,0.10451 -0.0281,0.0281 -0.0629,0.0427 -0.10451,0.0438 z"
           inkscape:connector-curvature="0" /><path
           id="path4034"
           style="font-size:6.74263906px"
           d="m 357.33663,-505.65 -2.22504,0 c -0.24891,0.006 -0.45568,0.0916 -0.62031,0.25622 -0.16463,0.16463 -0.25004,0.3714 -0.25622,0.62031 l 0,2.15762 c 0.006,0.24891 0.0916,0.45568 0.25622,0.62031 0.16463,0.16463 0.3714,0.25004 0.62031,0.25622 l 3.10158,0 0,-0.72819 -3.10158,0 c -0.0416,-10e-4 -0.0764,-0.0157 -0.10451,-0.0438 -0.0281,-0.0281 -0.0427,-0.0629 -0.0438,-0.10451 l 0,-0.71471 3.24991,0 0,-1.44291 c -0.006,-0.24891 -0.0916,-0.45568 -0.25622,-0.62031 -0.16464,-0.16463 -0.37141,-0.25003 -0.62032,-0.25622 z m -2.37337,1.59124 0,-0.71471 c 0.001,-0.0416 0.0157,-0.0764 0.0438,-0.10451 0.0281,-0.0281 0.0629,-0.0427 0.10451,-0.0438 l 2.22504,0 c 0.0416,0.001 0.0764,0.0157 0.10451,0.0438 0.0281,0.0281 0.0427,0.0629 0.0438,0.10451 l 0,0.71471 z"
           inkscape:connector-curvature="0" /><path
           id="path4036"
           style="font-size:6.74263906px"
           d="m 361.72254,-502.46751 c -0.0416,-10e-4 -0.0764,-0.0157 -0.10451,-0.0438 -0.0281,-0.0281 -0.0427,-0.0629 -0.0438,-0.10451 l 0,-2.15762 c 10e-4,-0.0416 0.0157,-0.0764 0.0438,-0.10451 0.0281,-0.0281 0.0629,-0.0427 0.10451,-0.0438 l 3.08809,0 0,-0.7282 -3.08809,0 c -0.24892,0.006 -0.45569,0.0916 -0.62032,0.25622 -0.16463,0.16463 -0.25003,0.3714 -0.25621,0.62031 l 0,2.15762 c 0.006,0.24891 0.0916,0.45568 0.25621,0.62031 0.16463,0.16463 0.3714,0.25004 0.62032,0.25622 l 3.10157,0 0,-0.72819 z"
           inkscape:connector-curvature="0" /><path
           id="path4038"
           style="font-size:6.74263906px"
           d="m 366.41078,-505.65 c -0.24892,0.006 -0.45569,0.0916 -0.62032,0.25622 -0.16463,0.16463 -0.25003,0.3714 -0.25621,0.62031 l 0,2.15762 c 0.006,0.24891 0.0916,0.45568 0.25621,0.62031 0.16463,0.16463 0.3714,0.25004 0.62032,0.25622 l 2.22504,0 c 0.24891,-0.006 0.45568,-0.0916 0.62032,-0.25622 0.16462,-0.16463 0.25003,-0.3714 0.25621,-0.62031 l 0,-2.15762 c -0.006,-0.24891 -0.0916,-0.45568 -0.25621,-0.62031 -0.16464,-0.16463 -0.37141,-0.25003 -0.62032,-0.25622 z m 2.22504,0.7282 c 0.0416,0.001 0.0764,0.0157 0.10451,0.0438 0.0281,0.0281 0.0427,0.0629 0.0438,0.10451 l 0,2.15762 c -10e-4,0.0416 -0.0157,0.0764 -0.0438,0.10451 -0.0281,0.0281 -0.0629,0.0427 -0.10451,0.0438 l -2.22504,0 c -0.0416,-0.001 -0.0764,-0.0157 -0.10451,-0.0438 -0.0281,-0.0281 -0.0427,-0.0629 -0.0438,-0.10451 l 0,-2.15762 c 10e-4,-0.0416 0.0157,-0.0764 0.0438,-0.10451 0.0281,-0.0281 0.0629,-0.0427 0.10451,-0.0438 z"
           inkscape:connector-curvature="0" /><path
           id="path4040"
           style="font-size:6.74263906px"
           d="m 371.07942,-505.65 c -0.24891,0.006 -0.45568,0.0916 -0.62031,0.25622 -0.16463,0.16463 -0.25004,0.3714 -0.25622,0.62031 l 0,2.15762 c 0,0 0,0 0,0 l 0,0.87653 0.7282,0 0,-3.03415 c 0.001,-0.0416 0.0157,-0.0764 0.0438,-0.10451 0.0281,-0.0281 0.0629,-0.0427 0.10451,-0.0438 l 2.18459,0 0,-0.7282 z"
           inkscape:connector-curvature="0" /><path
           id="path4042"
           style="font-size:6.74263906px"
           d="m 376.74806,-505.65 -2.22505,0 c -0.24891,0.006 -0.45568,0.0916 -0.62031,0.25622 -0.16463,0.16463 -0.25004,0.3714 -0.25622,0.62031 l 0,2.15762 c 0.006,0.24891 0.0916,0.45568 0.25622,0.62031 0.16463,0.16463 0.3714,0.25004 0.62031,0.25622 l 3.10158,0 0,-0.72819 -3.10158,0 c -0.0416,-10e-4 -0.0764,-0.0157 -0.10451,-0.0438 -0.0281,-0.0281 -0.0427,-0.0629 -0.0438,-0.10451 l 0,-0.71471 3.24991,0 0,-1.44291 c -0.006,-0.24891 -0.0916,-0.45568 -0.25622,-0.62031 -0.16463,-0.16463 -0.3714,-0.25003 -0.62031,-0.25622 z m -2.37338,1.59124 0,-0.71471 c 10e-4,-0.0416 0.0157,-0.0764 0.0438,-0.10451 0.0281,-0.0281 0.0629,-0.0427 0.10451,-0.0438 l 2.22505,0 c 0.0416,0.001 0.0764,0.0157 0.10451,0.0438 0.0281,0.0281 0.0427,0.0629 0.0438,0.10451 l 0,0.71471 z"
           inkscape:connector-curvature="0" /></g></g></g></svg>
